<mxfile modified="2021-08-06T07:19:10.734Z" host="app.diagrams.net" agent="5.0 (Macintosh; Intel Mac OS X 10_15_7) AppleWebKit/537.36 (KHTML, like Gecko) Chrome/92.0.4515.107 Safari/537.36" etag="Tla_6w7JfqbunhpbrEg4" version="14.9.4" type="github">
  <diagram id="Ht1M8jgEwFfnCIfOTk4-" name="Page-1">
    <mxGraphModel dx="2595" dy="765" grid="1" gridSize="10" guides="1" tooltips="1" connect="1" arrows="1" fold="1" page="1" pageScale="1" pageWidth="1169" pageHeight="827" math="0" shadow="0">
      <root>
        <mxCell id="0" />
        <mxCell id="1" parent="0" />
        <mxCell id="AEKgtb4Vp1-JAAo2aNqw-44" value="&lt;div style=&quot;text-align: center&quot;&gt;&lt;span&gt;&lt;font face=&quot;helvetica&quot; style=&quot;font-size: 15px&quot; color=&quot;#cc0000&quot;&gt;行情数据规划&lt;/font&gt;&lt;/span&gt;&lt;/div&gt;" style="verticalAlign=top;fontStyle=0;fontColor=#232F3D;html=1;align=left;strokeWidth=2;strokeColor=#CC0000;" vertex="1" parent="1">
          <mxGeometry y="549" width="820" height="600" as="geometry" />
        </mxCell>
        <mxCell id="AEKgtb4Vp1-JAAo2aNqw-7" value="&lt;font style=&quot;font-size: 15px&quot; color=&quot;#000000&quot;&gt;行情数据现状&lt;/font&gt;" style="verticalAlign=top;fontStyle=0;fontColor=#232F3D;html=1;align=left;strokeWidth=2;" vertex="1" parent="1">
          <mxGeometry y="120" width="820" height="380" as="geometry" />
        </mxCell>
        <mxCell id="UEzPUAAOIrF-is8g5C7q-88" value="" style="edgeStyle=orthogonalEdgeStyle;rounded=0;orthogonalLoop=1;jettySize=auto;html=1;endArrow=open;endFill=0;strokeWidth=2;" parent="1" target="UEzPUAAOIrF-is8g5C7q-77" edge="1">
          <mxGeometry relative="1" as="geometry">
            <mxPoint x="168" y="179" as="sourcePoint" />
          </mxGeometry>
        </mxCell>
        <mxCell id="UEzPUAAOIrF-is8g5C7q-89" value="" style="edgeStyle=orthogonalEdgeStyle;rounded=0;orthogonalLoop=1;jettySize=auto;html=1;endArrow=open;endFill=0;strokeWidth=2;" parent="1" target="UEzPUAAOIrF-is8g5C7q-79" edge="1">
          <mxGeometry relative="1" as="geometry">
            <Array as="points">
              <mxPoint x="248" y="350" />
            </Array>
            <mxPoint x="247.5" y="217.92511400912065" as="sourcePoint" />
          </mxGeometry>
        </mxCell>
        <mxCell id="UEzPUAAOIrF-is8g5C7q-100" style="edgeStyle=orthogonalEdgeStyle;rounded=0;orthogonalLoop=1;jettySize=auto;html=1;endArrow=open;endFill=0;strokeWidth=2;" parent="1" source="UEzPUAAOIrF-is8g5C7q-86" edge="1">
          <mxGeometry relative="1" as="geometry">
            <mxPoint x="195" y="629.0999999999999" as="targetPoint" />
          </mxGeometry>
        </mxCell>
        <mxCell id="AEKgtb4Vp1-JAAo2aNqw-12" value="MongoDB" style="points=[[0,0,0],[0.25,0,0],[0.5,0,0],[0.75,0,0],[1,0,0],[0,1,0],[0.25,1,0],[0.5,1,0],[0.75,1,0],[1,1,0],[0,0.25,0],[0,0.5,0],[0,0.75,0],[1,0.25,0],[1,0.5,0],[1,0.75,0]];outlineConnect=0;fontColor=#232F3E;gradientDirection=north;dashed=0;verticalLabelPosition=bottom;verticalAlign=top;align=center;html=1;fontSize=12;fontStyle=0;aspect=fixed;shape=mxgraph.aws4.resourceIcon;resIcon=mxgraph.aws4.documentdb_with_mongodb_compatibility;gradientColor=#FFCCCC;fillColor=none;" vertex="1" parent="1">
          <mxGeometry x="490" y="163" width="78" height="78" as="geometry" />
        </mxCell>
        <mxCell id="AEKgtb4Vp1-JAAo2aNqw-17" value="Redis 6379" style="outlineConnect=0;fontColor=#232F3E;gradientColor=none;strokeColor=none;dashed=0;verticalLabelPosition=bottom;verticalAlign=top;align=center;html=1;fontSize=12;fontStyle=0;aspect=fixed;pointerEvents=1;shape=mxgraph.aws4.elasticache_for_redis;sketch=0;fillColor=#000000;" vertex="1" parent="1">
          <mxGeometry x="600" y="167.5" width="78" height="69" as="geometry" />
        </mxCell>
        <mxCell id="AEKgtb4Vp1-JAAo2aNqw-18" value="Redis 6380" style="outlineConnect=0;fontColor=#232F3E;gradientColor=none;dashed=0;verticalLabelPosition=bottom;verticalAlign=top;align=center;html=1;fontSize=12;fontStyle=0;aspect=fixed;pointerEvents=1;shape=mxgraph.aws4.elasticache_for_redis;sketch=0;fillColor=#000000;" vertex="1" parent="1">
          <mxGeometry x="600" y="379" width="78" height="69" as="geometry" />
        </mxCell>
        <mxCell id="AEKgtb4Vp1-JAAo2aNqw-27" value="" style="edgeStyle=orthogonalEdgeStyle;rounded=0;orthogonalLoop=1;jettySize=auto;html=1;fontColor=#000000;strokeWidth=2;" edge="1" parent="1" source="AEKgtb4Vp1-JAAo2aNqw-20" target="AEKgtb4Vp1-JAAo2aNqw-12">
          <mxGeometry relative="1" as="geometry" />
        </mxCell>
        <mxCell id="AEKgtb4Vp1-JAAo2aNqw-20" value="文件" style="verticalLabelPosition=bottom;html=1;verticalAlign=top;align=center;strokeColor=none;shape=mxgraph.azure.cloud_services_configuration_file;pointerEvents=1;sketch=0;fontColor=#000000;strokeWidth=1;fillColor=#000000;" vertex="1" parent="1">
          <mxGeometry x="330" y="170.5" width="47.5" height="63" as="geometry" />
        </mxCell>
        <mxCell id="AEKgtb4Vp1-JAAo2aNqw-21" value="" style="edgeStyle=orthogonalEdgeStyle;html=1;endArrow=block;elbow=vertical;startArrow=none;endFill=1;rounded=0;fontColor=#000000;strokeWidth=2;" edge="1" parent="1" source="AEKgtb4Vp1-JAAo2aNqw-12" target="AEKgtb4Vp1-JAAo2aNqw-17">
          <mxGeometry width="100" relative="1" as="geometry">
            <mxPoint x="420" y="320" as="sourcePoint" />
            <mxPoint x="520" y="320" as="targetPoint" />
          </mxGeometry>
        </mxCell>
        <mxCell id="AEKgtb4Vp1-JAAo2aNqw-28" value="" style="edgeStyle=orthogonalEdgeStyle;rounded=0;orthogonalLoop=1;jettySize=auto;html=1;fontColor=#000000;strokeWidth=2;" edge="1" parent="1" source="AEKgtb4Vp1-JAAo2aNqw-23" target="AEKgtb4Vp1-JAAo2aNqw-20">
          <mxGeometry relative="1" as="geometry" />
        </mxCell>
        <mxCell id="AEKgtb4Vp1-JAAo2aNqw-23" value="S3 bucket" style="outlineConnect=0;fontColor=#232F3E;gradientColor=none;strokeColor=none;dashed=0;verticalLabelPosition=bottom;verticalAlign=top;align=center;html=1;fontSize=12;fontStyle=0;aspect=fixed;pointerEvents=1;shape=mxgraph.aws4.bucket_with_objects;sketch=0;fillColor=#000000;" vertex="1" parent="1">
          <mxGeometry x="180" y="175.5" width="50.97" height="53" as="geometry" />
        </mxCell>
        <mxCell id="AEKgtb4Vp1-JAAo2aNqw-29" value="" style="edgeStyle=orthogonalEdgeStyle;rounded=0;orthogonalLoop=1;jettySize=auto;html=1;fontColor=#000000;strokeWidth=2;" edge="1" parent="1" source="AEKgtb4Vp1-JAAo2aNqw-25" target="AEKgtb4Vp1-JAAo2aNqw-23">
          <mxGeometry relative="1" as="geometry" />
        </mxCell>
        <mxCell id="AEKgtb4Vp1-JAAo2aNqw-25" value="生产MongoDB" style="points=[[0,0,0],[0.25,0,0],[0.5,0,0],[0.75,0,0],[1,0,0],[0,1,0],[0.25,1,0],[0.5,1,0],[0.75,1,0],[1,1,0],[0,0.25,0],[0,0.5,0],[0,0.75,0],[1,0.25,0],[1,0.5,0],[1,0.75,0]];outlineConnect=0;fontColor=#232F3E;gradientDirection=north;dashed=0;verticalLabelPosition=bottom;verticalAlign=top;align=center;html=1;fontSize=12;fontStyle=0;aspect=fixed;shape=mxgraph.aws4.resourceIcon;resIcon=mxgraph.aws4.documentdb_with_mongodb_compatibility;gradientColor=#FFCCCC;fillColor=none;" vertex="1" parent="1">
          <mxGeometry x="70" y="163" width="78" height="78" as="geometry" />
        </mxCell>
        <mxCell id="AEKgtb4Vp1-JAAo2aNqw-30" value="&lt;font color=&quot;#000000&quot;&gt;聚宽服务器&lt;/font&gt;" style="outlineConnect=0;fontColor=#232F3E;gradientColor=none;fillColor=#232F3E;strokeColor=none;dashed=0;verticalLabelPosition=bottom;verticalAlign=top;align=center;html=1;fontSize=12;fontStyle=0;aspect=fixed;pointerEvents=1;shape=mxgraph.aws4.traditional_server;sketch=0;" vertex="1" parent="1">
          <mxGeometry x="70" y="375" width="45" height="78" as="geometry" />
        </mxCell>
        <mxCell id="AEKgtb4Vp1-JAAo2aNqw-31" value="" style="edgeStyle=orthogonalEdgeStyle;rounded=0;orthogonalLoop=1;jettySize=auto;html=1;fontColor=#000000;strokeWidth=2;" edge="1" parent="1" source="AEKgtb4Vp1-JAAo2aNqw-30" target="AEKgtb4Vp1-JAAo2aNqw-34">
          <mxGeometry relative="1" as="geometry">
            <mxPoint x="200.9699999999998" y="212" as="sourcePoint" />
            <mxPoint x="260" y="212" as="targetPoint" />
          </mxGeometry>
        </mxCell>
        <mxCell id="AEKgtb4Vp1-JAAo2aNqw-32" value="&lt;div style=&quot;text-align: left&quot;&gt;&lt;span&gt;美股&lt;/span&gt;&lt;span&gt;日K&lt;br&gt;美股分钟K只在mongo&lt;/span&gt;&lt;/div&gt;" style="rounded=0;whiteSpace=wrap;html=1;sketch=0;fontColor=#000000;strokeWidth=1;gradientColor=#FFCCCC;fillColor=none;strokeColor=none;" vertex="1" parent="1">
          <mxGeometry x="695" y="175.5" width="120" height="63" as="geometry" />
        </mxCell>
        <mxCell id="AEKgtb4Vp1-JAAo2aNqw-33" value="&lt;div style=&quot;&quot;&gt;&lt;span&gt;A股&lt;/span&gt;&lt;span&gt;日K&lt;br&gt;A股分钟K&lt;/span&gt;&lt;/div&gt;" style="rounded=0;whiteSpace=wrap;html=1;sketch=0;fontColor=#000000;strokeWidth=1;gradientColor=#FFCCCC;fillColor=none;align=left;strokeColor=none;" vertex="1" parent="1">
          <mxGeometry x="695" y="384" width="90" height="60" as="geometry" />
        </mxCell>
        <mxCell id="AEKgtb4Vp1-JAAo2aNqw-34" value="HTTP/TCP" style="outlineConnect=0;fontColor=#232F3E;gradientColor=none;dashed=0;verticalLabelPosition=bottom;verticalAlign=top;align=center;html=1;fontSize=12;fontStyle=0;aspect=fixed;pointerEvents=1;shape=mxgraph.aws4.internet_alt2;sketch=0;fillColor=#000000;" vertex="1" parent="1">
          <mxGeometry x="314.75" y="375" width="78" height="78" as="geometry" />
        </mxCell>
        <mxCell id="AEKgtb4Vp1-JAAo2aNqw-37" value="" style="edgeStyle=orthogonalEdgeStyle;rounded=0;orthogonalLoop=1;jettySize=auto;html=1;fontColor=#000000;strokeWidth=2;" edge="1" parent="1" source="AEKgtb4Vp1-JAAo2aNqw-34" target="AEKgtb4Vp1-JAAo2aNqw-18">
          <mxGeometry relative="1" as="geometry">
            <mxPoint x="91.5" y="424.0999999999999" as="sourcePoint" />
            <mxPoint x="245" y="424.0999999999999" as="targetPoint" />
          </mxGeometry>
        </mxCell>
        <mxCell id="AEKgtb4Vp1-JAAo2aNqw-39" value="" style="endArrow=none;dashed=1;html=1;dashPattern=1 3;strokeWidth=2;fontColor=#000000;" edge="1" parent="1">
          <mxGeometry width="50" height="50" relative="1" as="geometry">
            <mxPoint x="460" y="1150" as="sourcePoint" />
            <mxPoint x="460" y="20" as="targetPoint" />
          </mxGeometry>
        </mxCell>
        <mxCell id="AEKgtb4Vp1-JAAo2aNqw-40" value="" style="endArrow=none;dashed=1;html=1;dashPattern=1 3;strokeWidth=2;fontColor=#000000;" edge="1" parent="1">
          <mxGeometry width="50" height="50" relative="1" as="geometry">
            <mxPoint x="270" y="1150" as="sourcePoint" />
            <mxPoint x="270" y="20" as="targetPoint" />
          </mxGeometry>
        </mxCell>
        <mxCell id="AEKgtb4Vp1-JAAo2aNqw-41" value="&lt;font style=&quot;font-size: 15px&quot;&gt;数据源&lt;/font&gt;" style="text;html=1;strokeColor=none;fillColor=none;align=center;verticalAlign=middle;whiteSpace=wrap;rounded=0;sketch=0;fontColor=#000000;" vertex="1" parent="1">
          <mxGeometry x="89" y="60" width="51" height="20" as="geometry" />
        </mxCell>
        <mxCell id="AEKgtb4Vp1-JAAo2aNqw-42" value="&lt;span style=&quot;font-size: 15px&quot;&gt;传输途径&lt;/span&gt;" style="text;html=1;strokeColor=none;fillColor=none;align=center;verticalAlign=middle;whiteSpace=wrap;rounded=0;sketch=0;fontColor=#000000;" vertex="1" parent="1">
          <mxGeometry x="330" y="60" width="68.25" height="20" as="geometry" />
        </mxCell>
        <mxCell id="AEKgtb4Vp1-JAAo2aNqw-43" value="&lt;span style=&quot;font-size: 15px&quot;&gt;数据存储形式&lt;/span&gt;" style="text;html=1;strokeColor=none;fillColor=none;align=center;verticalAlign=middle;whiteSpace=wrap;rounded=0;sketch=0;fontColor=#000000;" vertex="1" parent="1">
          <mxGeometry x="610" y="60" width="96.5" height="20" as="geometry" />
        </mxCell>
        <mxCell id="AEKgtb4Vp1-JAAo2aNqw-47" value="&lt;font color=&quot;#000000&quot;&gt;聚宽服务器&lt;/font&gt;" style="outlineConnect=0;fontColor=#232F3E;gradientColor=none;fillColor=#232F3E;strokeColor=none;dashed=0;verticalLabelPosition=bottom;verticalAlign=top;align=center;html=1;fontSize=12;fontStyle=0;aspect=fixed;pointerEvents=1;shape=mxgraph.aws4.traditional_server;sketch=0;" vertex="1" parent="1">
          <mxGeometry x="70" y="1024.5" width="45" height="78" as="geometry" />
        </mxCell>
        <mxCell id="AEKgtb4Vp1-JAAo2aNqw-48" value="" style="edgeStyle=orthogonalEdgeStyle;rounded=0;orthogonalLoop=1;jettySize=auto;html=1;fontColor=#000000;strokeWidth=2;" edge="1" parent="1" source="AEKgtb4Vp1-JAAo2aNqw-47" target="AEKgtb4Vp1-JAAo2aNqw-50">
          <mxGeometry relative="1" as="geometry">
            <mxPoint x="200.9699999999998" y="826" as="sourcePoint" />
            <mxPoint x="260" y="826" as="targetPoint" />
          </mxGeometry>
        </mxCell>
        <mxCell id="AEKgtb4Vp1-JAAo2aNqw-50" value="HTTP/TCP" style="outlineConnect=0;fontColor=#232F3E;gradientColor=none;strokeColor=none;dashed=0;verticalLabelPosition=bottom;verticalAlign=top;align=center;html=1;fontSize=12;fontStyle=0;aspect=fixed;pointerEvents=1;shape=mxgraph.aws4.internet_alt2;sketch=0;fillColor=#000000;" vertex="1" parent="1">
          <mxGeometry x="314.75" y="1024.5" width="78" height="78" as="geometry" />
        </mxCell>
        <mxCell id="AEKgtb4Vp1-JAAo2aNqw-51" value="" style="edgeStyle=orthogonalEdgeStyle;rounded=0;orthogonalLoop=1;jettySize=auto;html=1;fontColor=#000000;strokeWidth=2;" edge="1" parent="1" source="AEKgtb4Vp1-JAAo2aNqw-50" target="AEKgtb4Vp1-JAAo2aNqw-76">
          <mxGeometry relative="1" as="geometry">
            <mxPoint x="91.5" y="923.5999999999999" as="sourcePoint" />
            <mxPoint x="600" y="949" as="targetPoint" />
          </mxGeometry>
        </mxCell>
        <mxCell id="AEKgtb4Vp1-JAAo2aNqw-52" value="TDengine" style="outlineConnect=0;fontColor=#232F3E;gradientColor=none;strokeColor=none;dashed=0;verticalLabelPosition=bottom;verticalAlign=top;align=center;html=1;fontSize=12;fontStyle=0;aspect=fixed;pointerEvents=1;shape=mxgraph.aws4.generic_database;sketch=0;fillColor=#CC0000;" vertex="1" parent="1">
          <mxGeometry x="609.5" y="927" width="59" height="78" as="geometry" />
        </mxCell>
        <mxCell id="AEKgtb4Vp1-JAAo2aNqw-53" value="&lt;font color=&quot;#cc0000&quot;&gt;美股日K&lt;br&gt;美股分钟K&lt;br&gt;美股其他粒度数据（聚合计算）&lt;/font&gt;" style="rounded=0;whiteSpace=wrap;html=1;sketch=0;fontColor=#000000;strokeWidth=1;gradientColor=#FFCCCC;fillColor=none;align=left;strokeColor=none;" vertex="1" parent="1">
          <mxGeometry x="695" y="702.5" width="105" height="117.5" as="geometry" />
        </mxCell>
        <mxCell id="AEKgtb4Vp1-JAAo2aNqw-61" value="" style="edgeStyle=orthogonalEdgeStyle;rounded=0;orthogonalLoop=1;jettySize=auto;html=1;fontColor=#000000;strokeWidth=2;strokeColor=#CC0000;exitX=1;exitY=0.5;exitDx=0;exitDy=0;exitPerimeter=0;" edge="1" parent="1" source="AEKgtb4Vp1-JAAo2aNqw-56" target="AEKgtb4Vp1-JAAo2aNqw-52">
          <mxGeometry relative="1" as="geometry">
            <mxPoint x="575" y="954.5" as="targetPoint" />
          </mxGeometry>
        </mxCell>
        <mxCell id="AEKgtb4Vp1-JAAo2aNqw-56" value="文件" style="verticalLabelPosition=bottom;html=1;verticalAlign=top;align=center;strokeColor=none;shape=mxgraph.azure.cloud_services_configuration_file;pointerEvents=1;sketch=0;fontColor=#000000;strokeWidth=1;fillColor=#CC0000;" vertex="1" parent="1">
          <mxGeometry x="330" y="934.5" width="47.5" height="63" as="geometry" />
        </mxCell>
        <mxCell id="AEKgtb4Vp1-JAAo2aNqw-71" value="" style="edgeStyle=orthogonalEdgeStyle;rounded=0;orthogonalLoop=1;jettySize=auto;html=1;fontColor=#000000;strokeColor=#000000;strokeWidth=2;" edge="1" parent="1" source="AEKgtb4Vp1-JAAo2aNqw-62" target="AEKgtb4Vp1-JAAo2aNqw-63">
          <mxGeometry relative="1" as="geometry" />
        </mxCell>
        <mxCell id="AEKgtb4Vp1-JAAo2aNqw-62" value="MongoDB" style="points=[[0,0,0],[0.25,0,0],[0.5,0,0],[0.75,0,0],[1,0,0],[0,1,0],[0.25,1,0],[0.5,1,0],[0.75,1,0],[1,1,0],[0,0.25,0],[0,0.5,0],[0,0.75,0],[1,0.25,0],[1,0.5,0],[1,0.75,0]];outlineConnect=0;fontColor=#232F3E;gradientDirection=north;dashed=0;verticalLabelPosition=bottom;verticalAlign=top;align=center;html=1;fontSize=12;fontStyle=0;aspect=fixed;shape=mxgraph.aws4.resourceIcon;resIcon=mxgraph.aws4.documentdb_with_mongodb_compatibility;gradientColor=#FFCCCC;fillColor=none;" vertex="1" parent="1">
          <mxGeometry x="490" y="590" width="78" height="78" as="geometry" />
        </mxCell>
        <mxCell id="AEKgtb4Vp1-JAAo2aNqw-63" value="Redis 6379" style="outlineConnect=0;fontColor=#232F3E;gradientColor=none;dashed=0;verticalLabelPosition=bottom;verticalAlign=top;align=center;html=1;fontSize=12;fontStyle=0;aspect=fixed;pointerEvents=1;shape=mxgraph.aws4.elasticache_for_redis;sketch=0;strokeColor=none;fillColor=#000000;" vertex="1" parent="1">
          <mxGeometry x="600" y="594.5" width="78" height="69" as="geometry" />
        </mxCell>
        <mxCell id="AEKgtb4Vp1-JAAo2aNqw-64" value="" style="edgeStyle=orthogonalEdgeStyle;rounded=0;orthogonalLoop=1;jettySize=auto;html=1;fontColor=#000000;strokeWidth=2;" edge="1" parent="1" source="AEKgtb4Vp1-JAAo2aNqw-65" target="AEKgtb4Vp1-JAAo2aNqw-62">
          <mxGeometry relative="1" as="geometry" />
        </mxCell>
        <mxCell id="AEKgtb4Vp1-JAAo2aNqw-65" value="文件" style="verticalLabelPosition=bottom;html=1;verticalAlign=top;align=center;shape=mxgraph.azure.cloud_services_configuration_file;pointerEvents=1;sketch=0;fontColor=#000000;strokeWidth=1;strokeColor=none;fillColor=#000000;" vertex="1" parent="1">
          <mxGeometry x="330" y="597.5" width="47.5" height="63" as="geometry" />
        </mxCell>
        <mxCell id="AEKgtb4Vp1-JAAo2aNqw-66" value="" style="edgeStyle=orthogonalEdgeStyle;rounded=0;orthogonalLoop=1;jettySize=auto;html=1;fontColor=#000000;strokeWidth=2;" edge="1" parent="1" source="AEKgtb4Vp1-JAAo2aNqw-67" target="AEKgtb4Vp1-JAAo2aNqw-65">
          <mxGeometry relative="1" as="geometry" />
        </mxCell>
        <mxCell id="AEKgtb4Vp1-JAAo2aNqw-67" value="S3 bucket" style="outlineConnect=0;fontColor=#232F3E;gradientColor=none;strokeColor=none;dashed=0;verticalLabelPosition=bottom;verticalAlign=top;align=center;html=1;fontSize=12;fontStyle=0;aspect=fixed;pointerEvents=1;shape=mxgraph.aws4.bucket_with_objects;sketch=0;fillColor=#000000;" vertex="1" parent="1">
          <mxGeometry x="180" y="602.5" width="50.97" height="53" as="geometry" />
        </mxCell>
        <mxCell id="AEKgtb4Vp1-JAAo2aNqw-68" value="" style="edgeStyle=orthogonalEdgeStyle;rounded=0;orthogonalLoop=1;jettySize=auto;html=1;fontColor=#000000;strokeWidth=2;" edge="1" parent="1" source="AEKgtb4Vp1-JAAo2aNqw-69" target="AEKgtb4Vp1-JAAo2aNqw-67">
          <mxGeometry relative="1" as="geometry" />
        </mxCell>
        <mxCell id="AEKgtb4Vp1-JAAo2aNqw-69" value="生产MongoDB" style="points=[[0,0,0],[0.25,0,0],[0.5,0,0],[0.75,0,0],[1,0,0],[0,1,0],[0.25,1,0],[0.5,1,0],[0.75,1,0],[1,1,0],[0,0.25,0],[0,0.5,0],[0,0.75,0],[1,0.25,0],[1,0.5,0],[1,0.75,0]];outlineConnect=0;fontColor=#232F3E;gradientDirection=north;dashed=0;verticalLabelPosition=bottom;verticalAlign=top;align=center;html=1;fontSize=12;fontStyle=0;aspect=fixed;shape=mxgraph.aws4.resourceIcon;resIcon=mxgraph.aws4.documentdb_with_mongodb_compatibility;gradientColor=#FFCCCC;fillColor=none;" vertex="1" parent="1">
          <mxGeometry x="70" y="590" width="78" height="78" as="geometry" />
        </mxCell>
        <mxCell id="AEKgtb4Vp1-JAAo2aNqw-70" value="&lt;div style=&quot;text-align: left&quot;&gt;&lt;span&gt;美股&lt;/span&gt;&lt;span&gt;日K&lt;br&gt;美股分钟K只在mongo&lt;/span&gt;&lt;/div&gt;" style="rounded=0;whiteSpace=wrap;html=1;sketch=0;fontColor=#000000;strokeWidth=1;gradientColor=#FFCCCC;fillColor=none;strokeColor=none;" vertex="1" parent="1">
          <mxGeometry x="695" y="602.5" width="120" height="63" as="geometry" />
        </mxCell>
        <mxCell id="AEKgtb4Vp1-JAAo2aNqw-72" value="S3 bucket&amp;nbsp;&lt;br&gt;with algoseek &lt;br&gt;m1 kline data" style="outlineConnect=0;fontColor=#232F3E;gradientColor=none;strokeColor=none;dashed=0;verticalLabelPosition=bottom;verticalAlign=top;align=center;html=1;fontSize=12;fontStyle=0;aspect=fixed;pointerEvents=1;shape=mxgraph.aws4.bucket_with_objects;sketch=0;fillColor=#CC0000;" vertex="1" parent="1">
          <mxGeometry x="180" y="715" width="50.97" height="53" as="geometry" />
        </mxCell>
        <mxCell id="AEKgtb4Vp1-JAAo2aNqw-73" value="" style="edgeStyle=orthogonalEdgeStyle;rounded=0;orthogonalLoop=1;jettySize=auto;html=1;fontColor=#000000;strokeWidth=2;strokeColor=#CC0000;" edge="1" parent="1" source="AEKgtb4Vp1-JAAo2aNqw-74" target="AEKgtb4Vp1-JAAo2aNqw-94">
          <mxGeometry relative="1" as="geometry">
            <mxPoint x="490" y="761.5" as="targetPoint" />
          </mxGeometry>
        </mxCell>
        <mxCell id="AEKgtb4Vp1-JAAo2aNqw-74" value="文件" style="verticalLabelPosition=bottom;html=1;verticalAlign=top;align=center;shape=mxgraph.azure.cloud_services_configuration_file;pointerEvents=1;sketch=0;fontColor=#000000;strokeWidth=1;strokeColor=none;fillColor=#CC0000;" vertex="1" parent="1">
          <mxGeometry x="330" y="710" width="47.5" height="63" as="geometry" />
        </mxCell>
        <mxCell id="AEKgtb4Vp1-JAAo2aNqw-75" value="" style="edgeStyle=orthogonalEdgeStyle;rounded=0;orthogonalLoop=1;jettySize=auto;html=1;fontColor=#000000;strokeWidth=2;strokeColor=#CC0000;" edge="1" parent="1" target="AEKgtb4Vp1-JAAo2aNqw-74" source="AEKgtb4Vp1-JAAo2aNqw-72">
          <mxGeometry relative="1" as="geometry">
            <mxPoint x="230.9699999999998" y="746.5" as="sourcePoint" />
          </mxGeometry>
        </mxCell>
        <mxCell id="AEKgtb4Vp1-JAAo2aNqw-76" value="Redis 6380" style="outlineConnect=0;fontColor=#232F3E;gradientColor=none;dashed=0;verticalLabelPosition=bottom;verticalAlign=top;align=center;html=1;fontSize=12;fontStyle=0;aspect=fixed;pointerEvents=1;shape=mxgraph.aws4.elasticache_for_redis;sketch=0;fillColor=#000000;" vertex="1" parent="1">
          <mxGeometry x="600" y="1029" width="78" height="69" as="geometry" />
        </mxCell>
        <mxCell id="AEKgtb4Vp1-JAAo2aNqw-77" value="&lt;div style=&quot;&quot;&gt;&lt;span&gt;A股&lt;/span&gt;&lt;span&gt;日K&lt;br&gt;A股分钟K&lt;/span&gt;&lt;/div&gt;" style="rounded=0;whiteSpace=wrap;html=1;sketch=0;fontColor=#000000;strokeWidth=1;gradientColor=#FFCCCC;fillColor=none;align=left;strokeColor=none;" vertex="1" parent="1">
          <mxGeometry x="695" y="1029" width="90" height="60" as="geometry" />
        </mxCell>
        <mxCell id="AEKgtb4Vp1-JAAo2aNqw-78" value="" style="edgeStyle=orthogonalEdgeStyle;rounded=0;orthogonalLoop=1;jettySize=auto;html=1;fontColor=#000000;strokeWidth=2;strokeColor=#CC0000;entryX=0;entryY=0.5;entryDx=0;entryDy=0;entryPerimeter=0;" edge="1" parent="1" source="AEKgtb4Vp1-JAAo2aNqw-47" target="AEKgtb4Vp1-JAAo2aNqw-56">
          <mxGeometry relative="1" as="geometry">
            <mxPoint x="387.5" y="930.5" as="sourcePoint" />
            <mxPoint x="330" y="966.5" as="targetPoint" />
            <Array as="points">
              <mxPoint x="93" y="966" />
            </Array>
          </mxGeometry>
        </mxCell>
        <mxCell id="AEKgtb4Vp1-JAAo2aNqw-86" value="" style="edgeStyle=orthogonalEdgeStyle;rounded=0;orthogonalLoop=1;jettySize=auto;html=1;fontColor=#000000;strokeWidth=2;strokeColor=#CC0000;" edge="1" parent="1" source="AEKgtb4Vp1-JAAo2aNqw-79" target="AEKgtb4Vp1-JAAo2aNqw-94">
          <mxGeometry relative="1" as="geometry">
            <mxPoint x="451.75" y="849" as="targetPoint" />
            <Array as="points">
              <mxPoint x="540" y="849" />
              <mxPoint x="540" y="741" />
            </Array>
          </mxGeometry>
        </mxCell>
        <mxCell id="AEKgtb4Vp1-JAAo2aNqw-79" value="HTTP/TCP" style="outlineConnect=0;fontColor=#232F3E;gradientColor=none;strokeColor=none;dashed=0;verticalLabelPosition=bottom;verticalAlign=top;align=center;html=1;fontSize=12;fontStyle=0;aspect=fixed;pointerEvents=1;shape=mxgraph.aws4.internet_alt2;sketch=0;fillColor=#CC0000;" vertex="1" parent="1">
          <mxGeometry x="314.75" y="810" width="78" height="78" as="geometry" />
        </mxCell>
        <mxCell id="AEKgtb4Vp1-JAAo2aNqw-80" value="&lt;font color=&quot;#000000&quot;&gt;行情生产服务器&lt;/font&gt;" style="outlineConnect=0;fontColor=#232F3E;gradientColor=none;strokeColor=none;dashed=0;verticalLabelPosition=bottom;verticalAlign=top;align=center;html=1;fontSize=12;fontStyle=0;aspect=fixed;pointerEvents=1;shape=mxgraph.aws4.traditional_server;sketch=0;fillColor=#CC0000;" vertex="1" parent="1">
          <mxGeometry x="70" y="810" width="45" height="78" as="geometry" />
        </mxCell>
        <mxCell id="AEKgtb4Vp1-JAAo2aNqw-84" value="" style="edgeStyle=orthogonalEdgeStyle;rounded=0;orthogonalLoop=1;jettySize=auto;html=1;fontColor=#000000;strokeWidth=2;strokeColor=#CC0000;" edge="1" parent="1" source="AEKgtb4Vp1-JAAo2aNqw-80" target="AEKgtb4Vp1-JAAo2aNqw-79">
          <mxGeometry relative="1" as="geometry">
            <mxPoint x="240.9699999999998" y="751.5" as="sourcePoint" />
            <mxPoint x="340" y="751.5" as="targetPoint" />
          </mxGeometry>
        </mxCell>
        <mxCell id="AEKgtb4Vp1-JAAo2aNqw-88" value="" style="endArrow=none;dashed=1;html=1;dashPattern=1 3;strokeWidth=2;fontColor=#000000;" edge="1" parent="1">
          <mxGeometry width="50" height="50" relative="1" as="geometry">
            <mxPoint y="919.5" as="sourcePoint" />
            <mxPoint x="930" y="919.5" as="targetPoint" />
          </mxGeometry>
        </mxCell>
        <mxCell id="AEKgtb4Vp1-JAAo2aNqw-92" value="&lt;font color=&quot;#cc0000&quot;&gt;A股tick数据&lt;br&gt;A股日K&lt;br&gt;A股分钟K&lt;br&gt;A股其他粒度数据（聚合计算）&lt;/font&gt;" style="rounded=0;whiteSpace=wrap;html=1;sketch=0;fontColor=#000000;strokeWidth=1;gradientColor=#FFCCCC;fillColor=none;align=left;strokeColor=none;" vertex="1" parent="1">
          <mxGeometry x="695" y="919.5" width="95" height="90" as="geometry" />
        </mxCell>
        <mxCell id="AEKgtb4Vp1-JAAo2aNqw-94" value="TDengine" style="outlineConnect=0;fontColor=#232F3E;gradientColor=none;strokeColor=none;dashed=0;verticalLabelPosition=bottom;verticalAlign=top;align=center;html=1;fontSize=12;fontStyle=0;aspect=fixed;pointerEvents=1;shape=mxgraph.aws4.generic_database;sketch=0;fillColor=#CC0000;" vertex="1" parent="1">
          <mxGeometry x="609.5" y="702.5" width="59" height="78" as="geometry" />
        </mxCell>
        <mxCell id="AEKgtb4Vp1-JAAo2aNqw-95" value="" style="endArrow=none;dashed=1;html=1;dashPattern=1 3;strokeWidth=2;fontColor=#000000;" edge="1" parent="1">
          <mxGeometry width="50" height="50" relative="1" as="geometry">
            <mxPoint y="309.5" as="sourcePoint" />
            <mxPoint x="930" y="309.5" as="targetPoint" />
          </mxGeometry>
        </mxCell>
        <mxCell id="AEKgtb4Vp1-JAAo2aNqw-96" value="&lt;span style=&quot;font-size: 15px&quot;&gt;美股行情&lt;/span&gt;" style="text;html=1;strokeColor=none;fillColor=none;align=center;verticalAlign=middle;whiteSpace=wrap;rounded=0;sketch=0;fontColor=#000000;" vertex="1" parent="1">
          <mxGeometry x="840" y="213.5" width="68.25" height="20" as="geometry" />
        </mxCell>
        <mxCell id="AEKgtb4Vp1-JAAo2aNqw-97" value="&lt;span style=&quot;font-size: 15px&quot;&gt;A股行情&lt;/span&gt;" style="text;html=1;strokeColor=none;fillColor=none;align=center;verticalAlign=middle;whiteSpace=wrap;rounded=0;sketch=0;fontColor=#000000;" vertex="1" parent="1">
          <mxGeometry x="840" y="404" width="68.25" height="20" as="geometry" />
        </mxCell>
        <mxCell id="AEKgtb4Vp1-JAAo2aNqw-98" value="&lt;span style=&quot;font-size: 15px&quot;&gt;A股行情&lt;/span&gt;" style="text;html=1;strokeColor=none;fillColor=none;align=center;verticalAlign=middle;whiteSpace=wrap;rounded=0;sketch=0;fontColor=#000000;" vertex="1" parent="1">
          <mxGeometry x="840" y="1040" width="68.25" height="20" as="geometry" />
        </mxCell>
        <mxCell id="AEKgtb4Vp1-JAAo2aNqw-99" value="&lt;span style=&quot;font-size: 15px&quot;&gt;美股行情&lt;/span&gt;" style="text;html=1;strokeColor=none;fillColor=none;align=center;verticalAlign=middle;whiteSpace=wrap;rounded=0;sketch=0;fontColor=#000000;" vertex="1" parent="1">
          <mxGeometry x="840" y="740" width="68.25" height="20" as="geometry" />
        </mxCell>
      </root>
    </mxGraphModel>
  </diagram>
</mxfile>
